<svg width="25" height="30" viewBox="0 0 25 30" fill="none" xmlns="http://www.w3.org/2000/svg">
<mask id="mask0_94_1664" style="mask-type:luminance" maskUnits="userSpaceOnUse" x="0" y="0" width="25" height="30">
<path d="M6.57637 4.65592C8.54099 3.17981 10.992 2.50307 13.4357 2.76202C15.8794 3.02097 18.1341 4.19638 19.7458 6.05145C21.3574 7.90653 22.2061 10.3034 22.121 12.7593C22.0358 15.2152 21.0232 17.5476 19.2869 19.2866L16.261 22.3126L9.39054 15.4463C8.82685 14.883 8.43165 14.1734 8.24941 13.3975C8.06718 12.6217 8.10516 11.8104 8.35909 11.0549C8.61302 10.2995 9.07282 9.62998 9.68669 9.12174C10.3006 8.6135 11.0441 8.28673 11.8337 8.17823C12.6232 8.06973 13.4274 8.18382 14.1556 8.50764C14.8838 8.83145 15.5071 9.35214 15.9554 10.0111C16.4037 10.67 16.6592 11.441 16.693 12.2372C16.7268 13.0335 16.5376 13.8234 16.1468 14.5179L13.2322 11.6033C12.9768 11.348 12.6305 11.2045 12.2694 11.2045C11.9083 11.2045 11.5619 11.348 11.3066 11.6033C11.0512 11.8587 10.9077 12.205 10.9077 12.5661C10.9077 12.9273 11.0512 13.2736 11.3066 13.529L16.2582 18.4806L17.3586 17.3802C18.588 16.1517 19.3162 14.5095 19.4014 12.7736C19.4865 11.0376 18.9225 9.33205 17.8192 7.98909C16.7158 6.64614 15.1522 5.7619 13.4326 5.50858C11.7131 5.25525 9.9609 5.65097 8.51715 6.61868L6.57637 4.65592ZM21.2084 3.62707C16.3724 -1.20902 8.46075 -1.20902 3.62604 3.62707C-1.20868 8.46316 -1.20868 16.3734 3.62604 21.2081L12.4165 30L14.3422 28.0744L5.55167 19.2825C3.90304 17.6232 2.90584 15.4265 2.74197 13.0932C2.57809 10.7598 3.25848 8.44536 4.659 6.57191L6.60663 8.52094C5.71031 9.86862 5.307 11.4845 5.4649 13.0953C5.62279 14.7061 6.33222 16.213 7.47317 17.361L16.2637 26.1528L21.2153 21.2012C26.0432 16.3734 26.0432 8.46178 21.2084 3.62707Z" fill="white"/>
</mask>
<g mask="url(#mask0_94_1664)">
<path d="M26.0432 -1.20898H-1.20862V29.9987H26.0432V-1.20898Z" fill="url(#paint0_linear_94_1664)"/>
</g>
<defs>
<linearGradient id="paint0_linear_94_1664" x1="20.2223" y1="22.1998" x2="5.09644" y2="7.07537" gradientUnits="userSpaceOnUse">
<stop stop-color="#F37C10"/>
<stop offset="1" stop-color="#E27D1D"/>
</linearGradient>
</defs>
</svg>
